<svg width="60" height="60" viewBox="0 0 60 60" fill="none" xmlns="http://www.w3.org/2000/svg">
<rect width="60" height="60" rx="8" fill="black"/>
<path d="M22.6875 11.6094L29.8125 37.2031L37.3594 11.6562L45.2812 11.6094V46.1562H39.75V22.3438L32.9531 43.9531C32.7031 44.7344 32.3438 45.2969 31.875 45.6406C31.4062 45.9844 30.7969 46.1562 30.0469 46.1562H26.8594L20.25 21.5938V46.1562H15.0469V17.3281C15.0469 16.3594 14.9844 15.7344 14.8594 15.4531C14.7344 15.1406 14.5312 14.9375 14.25 14.8438C13.7188 14.625 13.3125 14.4062 13.0312 14.1875C12.75 13.9688 12.6094 13.6406 12.6094 13.2031C12.6094 12.1406 13.2812 11.6094 14.625 11.6094H22.6875Z" fill="white"/>
</svg>
